<svg width="24" height="24" viewBox="0 0 24 24" fill="none" xmlns="http://www.w3.org/2000/svg" class="SvgWhiteboardsDefault"><mask id="___SVG_ID__297__0___" maskUnits="userSpaceOnUse" x="2" y="3" width="20" height="18" style="mask-type: alpha;"><path d="M6.775 5.125h10.45c.793 0 1.305.001 1.694.033.374.03.512.082.58.117.259.132.47.342.601.6.035.069.087.207.117.58.032.39.033.902.033 1.695v5.637a.687.687 0 1 0 1.375 0V8.15c0-1.54 0-2.31-.3-2.898a2.75 2.75 0 0 0-1.201-1.202c-.589-.3-1.359-.3-2.899-.3H6.775c-1.54 0-2.31 0-2.898.3a2.75 2.75 0 0 0-1.202 1.202c-.3.588-.3 1.358-.3 2.898v6.325c0 1.54 0 2.31.3 2.899a2.75 2.75 0 0 0 1.202 1.201c.502.256 1.941.294 3.31.3a.688.688 0 0 0 0-1.375c-.81-.002-1.81-.009-2.106-.033-.374-.03-.512-.082-.58-.117a1.374 1.374 0 0 1-.601-.6c-.035-.069-.087-.207-.117-.58-.032-.39-.033-.902-.033-1.695V8.15c0-.793.001-1.305.033-1.694.03-.374.082-.512.117-.58.132-.259.342-.47.6-.601.069-.035.207-.087.58-.117.39-.032.902-.033 1.695-.033Z" fill="#000001"></path><path d="M13.337 16.125c-.427 0-.848.1-1.23.29L9.937 17.5a.769.769 0 0 0 0 1.375l2.17 1.085c.382.19.803.29 1.23.29h6.913c.76 0 1.375-.616 1.375-1.375V17.5c0-.76-.616-1.375-1.375-1.375h-6.913Z" fill="#000001"></path></mask><g mask="url(#___SVG_ID__297__0___)"><rect x="1" y="1" width="22" height="22" fill="#fff" fill-opacity="0.62"></rect></g></svg>