<svg width="24" height="24" viewBox="0 0 24 24" fill="none" xmlns="http://www.w3.org/2000/svg" class="SvgReactionDefault"><path d="M19.501 1a.75.75 0 0 1 1.5 0v2.002h2a.75.75 0 0 1 0 1.5h-2v1.997a.75.75 0 1 1-1.5 0V4.5h-2.003a.75.75 0 1 1 0-1.499h2.003V1.001Z" fill="#fff" fill-opacity="0.62"></path><path fill-rule="evenodd" clip-rule="evenodd" d="M12 3h2.2c.675 0 1.018.58 1.063.996A2.25 2.25 0 0 0 17.5 6h.504v.498c0 1.151.864 2.1 1.979 2.234C20.397 8.782 21 9 21 9.8V12a9 9 0 1 1-9-9Zm-2.4 9a1.2 1.2 0 1 0 0-2.4 1.2 1.2 0 0 0 0 2.4Zm6-1.2a1.2 1.2 0 1 1-2.4 0 1.2 1.2 0 0 1 2.4 0Zm-6.282 2.63a.75.75 0 1 0-1.304.74c.94 1.655 2.774 2.18 3.986 2.18 1.212 0 3.046-.525 3.986-2.18a.75.75 0 1 0-1.304-.74c-.579 1.017-1.784 1.42-2.682 1.42-.898 0-2.103-.403-2.682-1.42Z" fill="#fff" fill-opacity="0.62"></path></svg>