<svg width="24" height="24" viewBox="0 0 24 24" fill="none" xmlns="http://www.w3.org/2000/svg" class="SvgSharingDefault"><path fill-rule="evenodd" clip-rule="evenodd" d="M0 7.8c0-1.68 0-2.52.327-3.162a3 3 0 0 1 1.311-1.311C2.28 3 3.12 3 4.8 3h14.4c1.68 0 2.52 0 3.162.327a3 3 0 0 1 1.311 1.311C24 5.28 24 6.12 24 7.8v8.4c0 1.68 0 2.52-.327 3.162a3 3 0 0 1-1.311 1.311C21.72 21 20.88 21 19.2 21H4.8c-1.68 0-2.52 0-3.162-.327a3 3 0 0 1-1.311-1.311C0 18.72 0 17.88 0 16.2V7.8Zm12.938 2.713 1.4 1.4a.937.937 0 0 0 1.325-1.326l-3-3a.937.937 0 0 0-1.326 0l-3 3a.937.937 0 1 0 1.326 1.326l1.4-1.4v5.237a.937.937 0 1 0 1.874 0v-5.237Z" fill="#23D959"></path></svg>