<svg width="24" height="24" viewBox="0 0 24 24" fill="none" xmlns="http://www.w3.org/2000/svg" class="SvgVideoStoppedDefault"><path fill-rule="evenodd" clip-rule="evenodd" d="M15.507 6.068A4.33 4.33 0 0 0 12.653 5H2.173C.974 5 0 5.973 0 7.174v7.479a4.35 4.35 0 0 0 2.843 4.08L15.507 6.068ZM7.424 19 17 9.424v7.402c0 1.2-.973 2.174-2.174 2.174H7.424ZM24 17.036V6.964a1 1 0 0 0-1.588-.809l-3.088 2.246a2 2 0 0 0-.824 1.617v3.964a2 2 0 0 0 .824 1.617l3.088 2.246A1 1 0 0 0 24 17.036Z" fill="#fff" fill-opacity="0.62"></path><path d="M23 1 1 23" stroke="#FF5C5C" stroke-width="1.5" stroke-linecap="round"></path></svg>